# xmcd CD database file
#
# Track frame offsets:
#	150
#	16289
#	35998
#	58345
#	87800
#	113945
#	134675
#	158654
#	182878
#	215026
#	236852
#	264377
#
# Disc length: 4180 seconds
#
# Revision: 0
# Processed by: cddbd v1.5.2PL0 Copyright (c) Steve Scherf et al.
# Submitted via: CDex 1.70beta2
#
DISCID=b510520c
DTITLE=이상은 - We are made of Stardust(14집)
DYEAR=2010
DGENRE=New Age
TTITLE0=Something in thr air
TTITLE1=Positiva
TTITLE2=Bliss
TTITLE3=Stardust
TTITLE4=섬
TTITLE5=Wild things
TTITLE6=Cosmic Nomad
TTITLE7=오늘도 크리스마스
TTITLE8=모나스트리
TTITLE9=The Box
TTITLE10=Magic Lake
TTITLE11=Invisible War
EXTD=YEAR: 2010
EXTT0=
EXTT1=
EXTT2=
EXTT3=
EXTT4=
EXTT5=
EXTT6=
EXTT7=
EXTT8=
EXTT9=
EXTT10=
EXTT11=
PLAYORDER=
